# xmcd
#
# Track frame offsets: 
#        182
#        10690
#        21005
#        34492
#        44072
#        55057
#        64967
#        79217
#        92167
#        103510
#        115362
#        127787
#        138525
#        148767
#
# Disc length: 2151 seconds
#
# Revision: 3
# Processed by: cddbd v1.5.2PL0 Copyright (c) Steve Scherf et al.
# Submitted via: ExactAudioCopyFreeDBPlugin 1.0
#
DISCID=c508650e
DTITLE=Connie Francis - The Country Store Collection - CD CST 56
DYEAR=1988
DGENRE=Country
TTITLE0=Your Cheatin Heart
TTITLE1=Oh, Lonesome Me
TTITLE2=She´ll Have To Go
TTITLE3=I Don´t Hurt Anymore
TTITLE4=Connie Francis with Hank Williams Jnr. - Bye Bye Love
TTITLE5=I Walk The Line
TTITLE6=I Don´t Wanna Play House
TTITLE7=I Can´t Stop Loving You
TTITLE8=There´ll Be No Teardrops Tonight
TTITLE9=Connie Francis with Hank Williams Jnr. - Please Help Me I´m Fa
TTITLE9=lling
TTITLE10=Heartaches By The Number
TTITLE11=How´s The World Treating You
TTITLE12=I´m Moving On
TTITLE13=A Legend In My Time
EXTD=
EXTT0=
EXTT1=
EXTT2=
EXTT3=
EXTT4=
EXTT5=
EXTT6=
EXTT7=
EXTT8=
EXTT9=
EXTT10=
EXTT11=
EXTT12=
EXTT13=
PLAYORDER=
